<svg width="618" height="514" viewBox="0 0 618 514" fill="none" xmlns="http://www.w3.org/2000/svg">
<path d="M175.837 404.915L141.675 457.404L173.481 490.363L177.604 481.818L170.536 464.729C170.536 464.729 171.714 448.86 175.837 444.587C179.96 440.315 198.22 414.68 198.22 414.68L175.837 404.915Z" fill="#FFB8B8"/>
<path d="M219.425 235.239C219.425 235.239 212.947 245.863 226.494 291.639C226.494 291.639 163.304 402.151 173.317 409.475C183.33 416.799 210.427 433.008 217.495 428.125C224.563 423.242 275.97 257.822 275.97 257.822L219.425 235.239Z" fill="#2F2E41"/>
<path d="M147.859 447.944L137.551 458.625C132.25 464.118 128.716 472.053 138.729 478.767C148.742 485.48 183.494 510.504 195.274 502.57C207.055 494.635 181.138 487.311 181.138 487.311C181.138 487.311 176.853 470.846 174.578 474.501C172.303 478.156 172.303 485.48 172.303 485.48L147.859 447.944Z" fill="#2F2E41"/>
<path d="M272.435 433.601C272.435 433.601 291.283 469.611 291.283 473.884C291.283 478.156 290.105 490.363 290.105 490.363L326.035 499.518L338.404 493.415L334.281 482.429C334.281 482.429 311.899 474.494 307.187 459.235C302.475 443.977 297.173 428.108 297.173 428.108L272.435 433.601Z" fill="#FFB8B8"/>
<path d="M250.641 75.3287C236.979 75.3287 225.903 63.8518 225.903 49.6942C225.903 35.5367 236.979 24.0598 250.641 24.0598C264.304 24.0598 275.38 35.5367 275.38 49.6942C275.38 63.8518 264.304 75.3287 250.641 75.3287Z" fill="#FFB8B8"/>
<path d="M257.121 71.6666L245.31 106.832L219.424 94.8598C219.424 94.8598 237.095 66.7839 237.095 63.1218L257.121 71.6666Z" fill="#FFB8B8"/>
<path d="M260.655 196.787H229.437C229.437 196.787 207.055 232.187 220.013 269.418C221.997 275.12 223.967 283.106 225.933 292.548C230.455 314.263 234.957 343.677 239.57 370.706C246.051 408.673 252.751 441.933 260.036 442.537C274.761 443.757 303.396 443.554 303.396 437.45C303.396 431.347 284.215 254.77 284.215 254.77L280.092 247.446L279.313 215.543C279.19 210.508 277.167 205.725 273.679 202.218C270.19 198.712 265.515 196.762 260.655 196.787V196.787Z" fill="#2F2E41"/>
<path d="M291.578 473.578C291.578 473.578 284.804 485.48 286.571 494.025C288.338 502.57 291.284 501.349 304.242 502.57C317.2 503.791 361.376 503.791 361.376 495.246C361.376 486.701 326.915 475.604 326.77 479.016C326.624 482.428 325.446 489.142 328.98 490.363C332.514 491.584 329.275 490.668 329.275 490.668L291.578 473.578Z" fill="#2F2E41"/>
<path d="M257.116 272.968C257.116 272.968 259.678 316.325 276.768 303.417C293.857 290.51 270.108 267.195 270.108 267.195L257.116 272.968Z" fill="white"/>
<path d="M223.008 215.867C222.187 216.251 221.28 216.395 220.386 216.286C219.491 216.176 218.642 215.816 217.93 215.244C216.896 214.403 216.208 213.188 216.003 211.843C213.532 197.083 210.524 156.165 208.791 135.475C206.617 109.512 217.477 89.4032 217.568 89.2808L223.968 80.1622C224.633 79.2095 225.589 78.518 226.682 78.2003C227.774 77.8826 228.938 77.9574 229.984 78.4126C229.984 78.4126 249.964 99.893 250.038 100.722C250.351 104.284 252.729 112.176 265.124 125.019C278.685 139.072 278.761 151.337 278.46 154.762C278.441 154.987 278.43 155.212 278.43 155.437C278.456 156.973 278.254 158.504 277.833 159.977C272.152 178.534 276.601 200.751 283.744 223.942C284.015 224.99 283.965 226.099 283.6 227.116C283.236 228.133 282.575 229.007 281.71 229.618C279.624 231.088 282.125 228.906 281.381 229.851C276.458 236.102 269.373 227.39 261.269 217.883C258.446 214.572 255.246 210.818 251.475 206.91C246.29 201.537 236.383 213.798 231.777 213.798C228.746 213.836 225.757 214.541 223.008 215.867V215.867Z" fill="#575A89"/>
<path d="M220.261 98.7484C220.261 98.7484 207.322 110.056 214.673 124.72C222.024 139.384 221.046 150.199 221.046 150.199C221.046 150.199 223.003 250.938 245.972 246.043L256.421 275.934L275.29 268.876L264.379 242.512C264.379 242.512 273.118 241.949 270.564 235.779C268.771 231.445 259.108 184.415 253.514 156.803C251.144 145.103 249.505 136.889 249.505 136.889C249.505 136.889 242.07 95.6975 220.261 98.7484Z" fill="#575A89"/>
<path opacity="0.2" d="M217.547 149.941L224.822 199.404L220.897 146.515L217.547 149.941Z" fill="black"/>
<path d="M277.632 38.3362C277.632 38.3362 281.791 4.79667 247.856 15.7951C247.856 15.7951 223.62 11.187 215.672 42.601L207.624 75.5307L211.546 73.3185L213.374 77.4603L219.73 79.1282L222.45 73.5344L223.766 80.3273L275.823 85.7049C275.823 85.7049 252.507 71.4171 252.138 45.8097L256.579 50.6728L277.632 38.3362Z" fill="#2F2E41"/>
<path opacity="0.2" d="M238.92 372.635L227.312 292.486L236.753 379.01L238.92 372.635Z" fill="black"/>
<path d="M219.948 29.6872C212.719 29.6872 206.859 23.6145 206.859 16.1234C206.859 8.6323 212.719 2.55957 219.948 2.55957C227.178 2.55957 233.038 8.6323 233.038 16.1234C233.038 23.6145 227.178 29.6872 219.948 29.6872Z" fill="#2F2E41"/>
<path d="M233.437 12.8028C233.222 9.36148 231.749 6.13451 229.318 3.77915C226.887 1.42379 223.681 0.117194 220.353 0.125485C220.624 0.0899541 220.891 0.0467608 221.167 0.0284064C222.883 -0.0868485 224.604 0.149358 226.232 0.723545C227.86 1.29773 229.362 2.19864 230.654 3.3748C231.946 4.55096 233.001 5.97931 233.76 7.57826C234.519 9.17721 234.966 10.9154 235.077 12.6936C235.187 14.4717 234.958 16.255 234.403 17.9415C233.848 19.6279 232.978 21.1846 231.842 22.5225C230.706 23.8603 229.327 24.9532 227.784 25.7387C226.24 26.5242 224.563 26.9868 222.847 27.1002C222.571 27.1185 222.3 27.1112 222.028 27.1119C225.329 26.6785 228.347 24.9573 230.467 22.2987C232.587 19.6402 233.649 16.2444 233.437 12.8028V12.8028Z" fill="#2F2E41"/>
<path opacity="0.2" d="M257.304 165.355L268.82 229.316L253.893 158.67L257.304 165.355Z" fill="black"/>
<path d="M256.586 68.1675L263.298 73.4116C270.211 69.8068 275.396 61.4663 277.28 53.5057L269.966 49.6814C269.391 57.8007 263.829 63.1986 256.586 68.1675Z" fill="white"/>
<path d="M253.799 50.8367H270.524C270.671 50.8367 270.813 50.7758 270.918 50.6675C271.022 50.5591 271.081 50.4122 271.081 50.259C271.081 50.1058 271.022 49.9588 270.918 49.8505C270.813 49.7422 270.671 49.6813 270.524 49.6813H253.799C253.651 49.6813 253.509 49.7422 253.404 49.8505C253.3 49.9588 253.241 50.1058 253.241 50.259C253.241 50.4122 253.3 50.5591 253.404 50.6675C253.509 50.7758 253.651 50.8367 253.799 50.8367V50.8367Z" fill="white"/>
<path d="M257.143 68.1673C257.234 68.1674 257.324 68.1443 257.404 68.1C257.485 68.0558 257.553 67.9918 257.605 67.9136C257.656 67.8354 257.687 67.7455 257.697 67.6516C257.707 67.5577 257.694 67.4629 257.66 67.3753L253.2 55.8214C253.173 55.7508 253.133 55.6864 253.082 55.6319C253.031 55.5774 252.97 55.5339 252.903 55.5038C252.835 55.4738 252.763 55.4578 252.69 55.4568C252.616 55.4558 252.543 55.4699 252.475 55.4981C252.407 55.5263 252.345 55.5681 252.293 55.6212C252.24 55.6743 252.199 55.7377 252.17 55.8075C252.141 55.8774 252.126 55.9525 252.125 56.0284C252.125 56.1044 252.138 56.1798 252.166 56.2502L256.626 67.804C256.667 67.9113 256.738 68.0032 256.831 68.068C256.923 68.1327 257.032 68.1674 257.143 68.1673V68.1673Z" fill="white"/>
<path d="M252.673 57.6627C250.414 57.6627 248.583 55.0058 248.583 51.7285C248.583 48.4511 250.414 45.7943 252.673 45.7943C254.932 45.7943 256.764 48.4511 256.764 51.7285C256.764 55.0058 254.932 57.6627 252.673 57.6627Z" fill="#FFB8B8"/>
<path d="M261.756 296.346L167.917 375.124L173.21 381.818L265.371 302.866L263.416 299.786L261.756 296.346Z" fill="#5E6290"/>
<path d="M150.41 324.417C145.217 317.963 135.925 317.121 129.656 322.537L15.7583 420.94C9.48959 426.356 8.61783 435.979 13.8111 442.433L50.4467 487.965L187.046 369.948L150.41 324.417Z" fill="#5E6290"/>
<path d="M15.1558 412.402C6.78497 419.609 5.60035 432.437 12.5099 441.054L44.6861 481.185L181.663 363.258L149.487 323.128C142.578 314.51 130.19 313.366 121.819 320.573L15.1558 412.402Z" fill="#77A6F6"/>
<ellipse rx="11.4968" ry="11.8674" transform="matrix(-0.999692 0.0248276 0.0231233 0.999733 43.2489 491.15)" fill="#5E6290"/>
<rect width="8.84136" height="180.797" transform="matrix(-0.619719 -0.784824 -0.762743 0.646701 158.896 334.645)" fill="#6C71A5"/>
<rect width="8.84136" height="181.14" transform="matrix(-0.619719 -0.784824 -0.762743 0.646701 168.754 347.23)" fill="#6C71A5"/>
<path d="M464.91 147.948L529.741 182.648L528.993 184.046L464.161 149.347L464.91 147.948Z" fill="#3F3D56"/>
<path d="M513.115 379.984C513.115 379.984 513.115 451.755 529.587 470.58C529.587 470.58 533.116 479.993 534.293 483.522C534.951 485.532 535.737 487.497 536.646 489.405V494.112C536.646 494.112 568.414 490.582 571.943 482.346L566.061 475.286C566.061 475.286 564.884 474.11 566.061 470.58C567.237 467.05 563.707 467.05 563.707 467.05L555.471 448.225L556.648 370.571L550.765 263.503L500.172 261.15L513.115 379.984Z" fill="#2F2E41"/>
<path d="M538.999 487.052C538.999 487.052 530.763 511.76 538.999 512.937C547.235 514.113 619.006 515.29 617.829 505.877C616.653 496.465 593.121 497.641 593.121 497.641L568.413 482.346L538.999 487.052Z" fill="#2F2E41"/>
<path d="M466.051 263.504C466.051 263.504 463.698 278.799 473.111 295.271C482.523 311.743 476.641 367.042 476.641 367.042L393.104 439.989C393.104 439.989 409.576 468.227 415.459 467.051C421.342 465.874 514.291 390.573 514.291 390.573L550.765 268.21L466.051 263.504Z" fill="#2F2E41"/>
<path d="M394.253 436.872C394.253 436.872 368.974 443.143 372.39 450.729C375.805 458.315 413.234 519.565 420.554 513.532C427.874 507.5 414.283 488.254 414.283 488.254L413.974 459.197L394.253 436.872Z" fill="#2F2E41"/>
<path d="M484.877 44.6629C484.868 50.8613 486.999 56.8729 490.91 61.6819C494.002 65.5145 498.084 68.4281 502.714 70.1072C507.343 71.7863 512.344 72.167 517.174 71.208C519.593 70.7405 521.933 69.935 524.128 68.8152C527.612 67.0588 530.676 64.5691 533.107 61.5169C535.539 58.4648 537.281 54.9226 538.215 51.1335C538.74 49.0169 539.005 46.8438 539.001 44.6629C539.001 37.4856 536.15 30.6023 531.075 25.5272C526 20.4522 519.116 17.601 511.939 17.601C504.762 17.601 497.879 20.4522 492.804 25.5272C487.728 30.6023 484.877 37.4856 484.877 44.6629V44.6629Z" fill="#A0616A"/>
<path d="M490.646 54.2091L491.843 89.0318L514.613 98.0285C514.613 98.0285 516.846 62.3724 519.998 60.3956C523.15 58.4188 490.646 54.2091 490.646 54.2091Z" fill="#A0616A"/>
<path d="M520.174 102.313C520.174 102.313 488.407 70.5455 480.171 71.7221C471.935 72.8987 471.935 76.4284 471.935 78.7815C471.935 81.1347 474.288 82.3112 471.935 83.4878C469.581 84.6644 467.228 83.4878 467.228 87.0175C467.228 90.5472 446.05 125.844 453.109 164.671C460.169 203.498 468.405 222.323 464.875 243.502C461.345 264.68 463.699 269.386 463.699 269.386C463.699 269.386 551.942 276.446 553.118 268.21C554.295 259.974 549.588 264.68 555.471 258.797C561.354 252.914 559.001 252.914 559.001 249.385C559.001 245.855 533.116 102.313 520.174 102.313Z" fill="#575A89"/>
<circle r="9.02194" transform="matrix(-1 0 0 1 521.908 274.944)" fill="#5E6290"/>
<g filter="url(#filter0_d)">
<path d="M503.701 262.327C503.701 262.327 517.82 296.447 528.409 288.211C538.998 279.975 523.703 251.738 523.703 251.738L503.701 262.327Z" fill="white"/>
</g>
<path d="M469.582 104.666C469.582 104.666 441.938 107.831 452.23 158.606C462.522 209.381 502.526 268.21 502.526 268.21L529.587 255.267L494.29 185.85L502.526 142.316C502.526 142.316 507.232 101.136 469.582 104.666Z" fill="#575A89"/>
<path opacity="0.2" d="M493.701 186.438L532.528 251.149L528.998 254.679L493.701 186.438Z" fill="black"/>
<path opacity="0.2" d="M473.15 216.594L504.291 267.621H493.702L473.15 216.594Z" fill="black"/>
<path opacity="0.2" d="M543.492 309.325L545.057 309.922L514.095 391.1L512.531 390.503L543.492 309.325Z" fill="black"/>
<path d="M520.007 108.773C519.083 108.773 518.333 108.024 518.333 107.099C518.333 106.175 519.083 105.425 520.007 105.425C520.931 105.425 521.681 106.175 521.681 107.099C521.681 108.024 520.931 108.773 520.007 108.773Z" fill="#D0CDE1"/>
<path d="M534.235 153.964C534.056 153.964 533.882 153.907 533.738 153.801C533.594 153.695 533.488 153.545 533.436 153.374L519.209 107.347C519.176 107.241 519.164 107.131 519.174 107.021C519.184 106.912 519.216 106.805 519.267 106.708C519.318 106.611 519.388 106.524 519.473 106.454C519.558 106.384 519.655 106.331 519.76 106.298C519.865 106.266 519.976 106.255 520.085 106.265C520.195 106.275 520.301 106.307 520.399 106.358C520.496 106.41 520.582 106.48 520.652 106.564C520.722 106.649 520.775 106.747 520.807 106.852L535.034 152.881C535.073 153.006 535.081 153.138 535.059 153.268C535.037 153.397 534.986 153.519 534.908 153.624C534.83 153.729 534.729 153.815 534.612 153.874C534.495 153.933 534.366 153.964 534.235 153.965V153.964Z" fill="#D0CDE1"/>
<path d="M517.365 65.389L524.128 71.8226C531.093 68.3177 537.82 58.8735 539.719 51.1335L530.846 47.4152C530.266 55.3095 524.663 60.5578 517.365 65.389Z" fill="white"/>
<path d="M515.679 50.7854C515.706 50.7854 515.732 50.7836 515.759 50.7799L531.486 48.5331C531.559 48.5228 531.629 48.4981 531.693 48.4606C531.756 48.423 531.812 48.3734 531.856 48.3144C531.9 48.2554 531.933 48.1883 531.951 48.1168C531.969 48.0454 531.974 47.971 531.963 47.8979C531.953 47.8249 531.928 47.7546 531.891 47.6911C531.853 47.6276 531.803 47.5721 531.744 47.5278C531.685 47.4835 531.618 47.4512 531.547 47.4328C531.475 47.4145 531.401 47.4104 531.328 47.4207L515.601 49.6675C515.46 49.6874 515.332 49.7599 515.243 49.8703C515.154 49.9808 515.109 50.121 515.119 50.2627C515.129 50.4044 515.192 50.5371 515.296 50.6341C515.4 50.7311 515.537 50.7851 515.679 50.7854V50.7854Z" fill="white"/>
<path d="M517.927 65.389C518.025 65.3891 518.121 65.3635 518.206 65.3147C518.291 65.2659 518.362 65.1957 518.412 65.111C518.461 65.0263 518.488 64.9301 518.488 64.832C518.489 64.7339 518.464 64.6373 518.416 64.5519L513.205 55.2754C513.169 55.2109 513.12 55.1541 513.062 55.1084C513.004 55.0626 512.938 55.0288 512.867 55.0088C512.796 54.9888 512.721 54.983 512.648 54.9918C512.575 55.0006 512.504 55.0237 512.439 55.06C512.375 55.0962 512.318 55.1448 512.273 55.2029C512.227 55.2611 512.194 55.3276 512.174 55.3988C512.154 55.47 512.148 55.5443 512.157 55.6177C512.167 55.691 512.19 55.7618 512.226 55.8261L517.437 65.1026C517.486 65.1895 517.557 65.2619 517.643 65.3122C517.729 65.3626 517.827 65.389 517.927 65.389V65.389Z" fill="white"/>
<path d="M499.69 60.9218C501.881 59.7635 504.426 59.5247 506.797 58.8047C515.281 56.2289 520.964 46.6386 519.149 37.9601C518.814 36.847 518.664 35.6865 518.704 34.5247C519.021 31.9544 521.651 30.2959 524.173 29.707C526.695 29.1181 529.378 29.2036 531.789 28.2566C535.51 26.7945 537.983 22.9697 538.519 19.0071C539.055 15.0445 537.879 11.003 535.966 7.49134L535.055 10.1127C533.666 8.93662 532.635 7.39422 532.079 5.66097C531.044 5.83494 530.07 6.27178 529.252 6.92966C528.434 7.58753 527.799 8.4444 527.407 9.41823C525.944 10.2805 525.734 6.73952 524.119 6.21715C523.442 5.99842 522.747 6.41394 522.103 6.7144C518.848 8.23234 515.067 6.9345 511.576 6.0931C505.53 4.64299 499.228 4.63557 493.18 6.07144C489.161 7.02995 485.183 8.69908 482.308 11.6653C479.946 14.1014 478.475 17.2515 477.222 20.4045C474.138 28.1665 472.1 36.5652 473.118 44.8552C473.966 51.639 476.804 58.0197 481.275 63.1924C483.603 65.8754 491.201 75.2357 495.367 73.6399C500.601 71.6347 493.523 64.1828 499.69 60.9218Z" fill="#2F2E41"/>
<path d="M512.135 278.327L398.646 366.439L404.835 374.373L517.774 285.47L514.766 282.086L512.135 278.327Z" fill="#A2A4B0"/>
<path d="M377.922 305.672C372.428 298.751 362.363 297.595 355.443 303.089L212.693 416.423C205.773 421.918 204.616 431.982 210.111 438.903L254.019 494.207L421.83 360.976L377.922 305.672Z" fill="#A2A4B0"/>
<path d="M210.685 407.68C202.022 414.533 200.556 427.111 207.409 435.774L247.27 486.16L415.534 353.045L375.673 302.658C368.82 293.996 356.242 292.529 347.579 299.382L210.685 407.68Z" fill="#A83E3E"/>
<circle r="13" transform="matrix(-1 0 0 1 247 496)" fill="#B9BCC7"/>
<rect width="10.4241" height="214.668" transform="matrix(-0.614533 -0.788891 -0.788891 0.614533 388.911 319.129)" fill="#B9BCC7"/>
<rect width="10.4241" height="215.076" transform="matrix(-0.614533 -0.788891 -0.788891 0.614533 400.433 334.041)" fill="#B9BCC7"/>
<defs>
<filter id="filter0_d" x="499.701" y="251.738" width="36.4424" height="45.7564" filterUnits="userSpaceOnUse" color-interpolation-filters="sRGB">
<feFlood flood-opacity="0" result="BackgroundImageFix"/>
<feColorMatrix in="SourceAlpha" type="matrix" values="0 0 0 0 0 0 0 0 0 0 0 0 0 0 0 0 0 0 127 0" result="hardAlpha"/>
<feOffset dy="4"/>
<feGaussianBlur stdDeviation="2"/>
<feComposite in2="hardAlpha" operator="out"/>
<feColorMatrix type="matrix" values="0 0 0 0 0 0 0 0 0 0 0 0 0 0 0 0 0 0 0.25 0"/>
<feBlend mode="normal" in2="BackgroundImageFix" result="effect1_dropShadow"/>
<feBlend mode="normal" in="SourceGraphic" in2="effect1_dropShadow" result="shape"/>
</filter>
</defs>
</svg>
